<?xml version="1.0" encoding="UTF-8"?>
<svg xmlns="http://www.w3.org/2000/svg" xmlns:xlink="http://www.w3.org/1999/xlink" width="14px" height="14px" viewBox="0 0 14 14" version="1.1">
<g id="surface1">
<path style=" stroke:none;fill-rule:nonzero;fill:rgb(100%,100%,100%);fill-opacity:1;" d="M 12.476562 0.609375 L 1.523438 0.609375 C 0.683594 0.609375 0 1.292969 0 2.128906 L 0 11.871094 C 0 12.707031 0.683594 13.390625 1.523438 13.390625 L 12.476562 13.390625 C 13.316406 13.390625 14 12.707031 14 11.871094 L 14 2.128906 C 14 1.292969 13.316406 0.609375 12.476562 0.609375 Z M 13.390625 11.871094 C 13.390625 12.371094 12.980469 12.78125 12.476562 12.78125 L 1.523438 12.78125 C 1.019531 12.78125 0.609375 12.371094 0.609375 11.871094 L 0.609375 2.128906 C 0.609375 1.628906 1.019531 1.21875 1.523438 1.21875 L 12.476562 1.21875 C 12.980469 1.21875 13.390625 1.628906 13.390625 2.128906 Z M 13.390625 11.871094 "/>
<path style=" stroke:none;fill-rule:nonzero;fill:rgb(100%,100%,100%);fill-opacity:1;" d="M 5.476562 4.261719 L 4.261719 4.261719 L 4.261719 3.042969 C 4.261719 2.875 4.125 2.738281 3.957031 2.738281 C 3.789062 2.738281 3.652344 2.875 3.652344 3.042969 L 3.652344 4.261719 L 2.433594 4.261719 C 2.265625 4.261719 2.128906 4.398438 2.128906 4.566406 C 2.128906 4.734375 2.265625 4.871094 2.433594 4.871094 L 3.652344 4.871094 L 3.652344 6.085938 C 3.652344 6.253906 3.789062 6.390625 3.957031 6.390625 C 4.125 6.390625 4.261719 6.253906 4.261719 6.085938 L 4.261719 4.871094 L 5.476562 4.871094 C 5.644531 4.871094 5.78125 4.734375 5.78125 4.566406 C 5.78125 4.398438 5.644531 4.261719 5.476562 4.261719 Z M 5.476562 4.261719 "/>
<path style=" stroke:none;fill-rule:nonzero;fill:rgb(100%,100%,100%);fill-opacity:1;" d="M 11.261719 4.261719 L 8.21875 4.261719 C 8.050781 4.261719 7.914062 4.398438 7.914062 4.566406 C 7.914062 4.734375 8.050781 4.871094 8.21875 4.871094 L 11.261719 4.871094 C 11.429688 4.871094 11.566406 4.734375 11.566406 4.566406 C 11.566406 4.398438 11.429688 4.261719 11.261719 4.261719 Z M 11.261719 4.261719 "/>
<path style=" stroke:none;fill-rule:nonzero;fill:rgb(100%,100%,100%);fill-opacity:1;" d="M 5.234375 8.140625 C 5.113281 8.019531 4.914062 8.019531 4.808594 8.140625 L 3.957031 9.007812 L 3.105469 8.140625 C 2.984375 8.019531 2.800781 8.019531 2.679688 8.140625 C 2.554688 8.261719 2.554688 8.445312 2.679688 8.566406 L 3.546875 9.433594 L 2.679688 10.300781 C 2.554688 10.425781 2.554688 10.605469 2.679688 10.726562 C 2.738281 10.789062 2.816406 10.820312 2.890625 10.820312 C 2.96875 10.820312 3.042969 10.789062 3.105469 10.726562 L 3.957031 9.859375 L 4.808594 10.726562 C 4.871094 10.789062 4.945312 10.820312 5.023438 10.820312 C 5.097656 10.820312 5.175781 10.789062 5.234375 10.726562 C 5.355469 10.605469 5.355469 10.425781 5.234375 10.300781 L 4.382812 9.433594 L 5.25 8.566406 C 5.355469 8.445312 5.355469 8.261719 5.234375 8.140625 Z M 5.234375 8.140625 "/>
<path style=" stroke:none;fill-rule:nonzero;fill:rgb(100%,100%,100%);fill-opacity:1;" d="M 11.261719 9.738281 L 8.21875 9.738281 C 8.050781 9.738281 7.914062 9.875 7.914062 10.042969 C 7.914062 10.210938 8.050781 10.347656 8.21875 10.347656 L 11.261719 10.347656 C 11.429688 10.347656 11.566406 10.210938 11.566406 10.042969 C 11.566406 9.875 11.429688 9.738281 11.261719 9.738281 Z M 11.261719 9.738281 "/>
<path style=" stroke:none;fill-rule:nonzero;fill:rgb(100%,100%,100%);fill-opacity:1;" d="M 11.261719 7.914062 L 8.21875 7.914062 C 8.050781 7.914062 7.914062 8.050781 7.914062 8.21875 C 7.914062 8.386719 8.050781 8.523438 8.21875 8.523438 L 11.261719 8.523438 C 11.429688 8.523438 11.566406 8.386719 11.566406 8.21875 C 11.566406 8.050781 11.429688 7.914062 11.261719 7.914062 Z M 11.261719 7.914062 "/>
</g>
</svg>
