<svg xmlns="http://www.w3.org/2000/svg" width="100" height="100" id="marker"><path d="M77.005 44.318 53.449 67.873l-.007-7.921c0-.529-.211-1.038-.586-1.412L39.498 45.181a2 2 0 0 0-1.414-.586h-7.903l23.552-23.551a2 2 0 1 0-2.828-2.828L23.938 45.181c-.01.01-.014.022-.024.032-.12.124-.223.263-.308.416-.017.031-.029.063-.044.094a1.918 1.918 0 0 0-.145.408c-.009.039-.021.076-.028.115-.004.024-.014.046-.017.071l-2.085 14.907-6.779 6.779a2 2 0 0 0 0 2.828l1.06 1.06-4.443 4.443c-.028.028-.047.06-.073.089a2.007 2.007 0 0 0-.137.168 2.048 2.048 0 0 0-.101.16 1.823 1.823 0 0 0-.161.353 1.94 1.94 0 0 0-.039 1.158c.01.038.013.077.026.115l3.858 11.667c.005.014.015.024.02.038.061.173.146.338.256.492.024.034.051.062.077.094.044.054.082.112.132.162.064.064.135.114.205.167.026.02.048.042.074.06.15.104.311.182.478.24.038.013.075.023.113.034.173.049.349.082.527.083.006 0 .011.003.017.003l.014-.002a1.99 1.99 0 0 0 .555-.091c.02-.006.04-.003.06-.01.019-.006.035-.017.053-.024a2.09 2.09 0 0 0 .206-.092c.054-.027.108-.052.159-.084.054-.033.104-.072.155-.111a2.2 2.2 0 0 0 .167-.136c.015-.014.032-.024.047-.039l8.347-8.348 1.06 1.06c.39.391.902.586 1.414.586s1.024-.195 1.414-.586l6.779-6.779 14.906-2.086c.018-.003.034-.01.051-.013.072-.012.141-.032.211-.052.059-.017.118-.031.174-.052.06-.023.117-.053.175-.082.06-.03.121-.058.177-.094.05-.031.096-.069.143-.106.057-.044.114-.087.166-.136.012-.012.027-.02.039-.032l26.965-26.965a2 2 0 1 0-2.829-2.825zm-59.729 41.39-2.452-7.416 3.571-3.571 4.934 4.934-6.053 6.053zm18.331-12.812c-.016.002-.031.009-.047.012-.075.012-.148.033-.221.054-.055.016-.11.028-.162.048-.064.024-.124.056-.185.087-.057.029-.115.055-.168.088-.051.032-.097.071-.146.107-.058.044-.116.088-.168.138-.012.012-.027.02-.039.032l-5.839 5.839-8.823-8.823-1.059-1.059 5.838-5.839c.02-.02.033-.043.052-.064a1.954 1.954 0 0 0 .339-.506c.023-.049.046-.098.065-.148.023-.063.04-.128.057-.193.015-.058.031-.116.041-.175.003-.017.01-.033.012-.051l1.938-13.847h10.163l12.188 12.188.009 10.175-13.845 1.937zm23.137-57.699c.512 0 1.023-.195 1.414-.585l2.613-2.613a2 2 0 0 0-2.828-2.829l-2.613 2.613a2 2 0 0 0 1.414 3.414zm30.132 20.078a2 2 0 0 0-2.828 0l-2.613 2.613a2 2 0 0 0 2.828 2.83l2.613-2.613a2.002 2.002 0 0 0 0-2.83z"></path><path d="M49.555 48.494c.391.391.902.586 1.414.586s1.023-.195 1.414-.586l14.399-14.399a2 2 0 1 0-2.828-2.828L49.555 45.666a1.998 1.998 0 0 0 0 2.828z"></path></svg>