<svg xmlns="http://www.w3.org/2000/svg" viewBox="0 0 25 25" id="measure"><path fill="#536784" d="M21.34,9.32,15.68,3.66a.513.513,0,0,0-.71,0L13.56,5.08,12.15,6.49l-1.41,1.4-.01.01-.01.01L9.32,9.32l-1.4,1.4c-.01,0-.01,0-.02.01s-.02.02-.02.03L6.49,12.15,5.08,13.56,3.66,14.98a.483.483,0,0,0,0,.7l5.66,5.66a.485.485,0,0,0,.35.15.508.508,0,0,0,.36-.15L21.34,10.02a.483.483,0,0,0,0-.7ZM9.67,20.28,4.72,15.33l.71-.71.71-.7.7-.71.71-.71.71-.7.71-.71.7-.71.71-.71.71-.7.71-.71.7-.71.71-.71.71-.7.7-.71.71-.71,4.95,4.95Z"></path><path fill="#5596ff" d="M14.97 6.49a.469.469 0 0 1-.35.15.485.485 0 0 1-.35-.15l-.35-.35.7-.71.35.35A.5.5 0 0 1 14.97 6.49zM14.27 8.61a.508.508 0 0 1-.36.15.5.5 0 0 1-.35-.15L12.5 7.55l.71-.71L14.27 7.9A.513.513 0 0 1 14.27 8.61zM12.15 9.32a.5.5 0 0 1-.36.14.491.491 0 0 1-.35-.14l-.35-.35.71-.71.35.35A.513.513 0 0 1 12.15 9.32zM11.44 11.44a.5.5 0 0 1-.35.15.508.508 0 0 1-.36-.15L9.67 10.38l.71-.71 1.06 1.06A.513.513 0 0 1 11.44 11.44zM9.32 12.15a.52.52 0 0 1-.71 0l-.35-.35.71-.71.35.35A.513.513 0 0 1 9.32 12.15zM8.61 14.27a.475.475 0 0 1-.35.14.5.5 0 0 1-.36-.14L6.84 13.21l.71-.71 1.06 1.06A.5.5 0 0 1 8.61 14.27zM6.49 14.97a.5.5 0 0 1-.35.15.508.508 0 0 1-.36-.15l-.35-.35.71-.7.35.35A.5.5 0 0 1 6.49 14.97z"></path></svg>