<svg xmlns="http://www.w3.org/2000/svg" width="32" height="32" id="needle"><path fill="#f7f7f7" d="m5.495 26.505 11.96-15.431c1.304-1.68 3.429-2.516 5.718-2.247.27 2.29-.566 4.414-2.247 5.717L5.496 26.505z" class="st0"></path><path fill="#444a54" d="m25.648 17.666-3.556-3.555c1.228-1.402 1.816-3.316 1.577-5.343a.498.498 0 0 0-.438-.438c-2.028-.239-3.945.35-5.346 1.58-.006-.01-.005-.018-.012-.025a2.002 2.002 0 0 1 0-2.829.5.5 0 0 0-.707-.707 3.004 3.004 0 0 0 0 4.243c.01.01.025.01.034.02-.043.052-.093.097-.135.151L5.105 26.194a.5.5 0 0 0 .701.702l15.431-11.96c.052-.04.095-.089.145-.13l3.563 3.563c.78.78.78 2.048 0 2.828a.5.5 0 0 0 .708.708 3.004 3.004 0 0 0 0-4.243zM20.62 14.15 8.308 23.692 17.85 11.38c1.114-1.438 2.908-2.203 4.86-2.092.09 1.566-.393 3.023-1.325 4.116l-1.042-1.041.354-.354a.5.5 0 0 0-.707-.707l-1.414 1.414a.5.5 0 0 0 .707.708l.353-.354 1.034 1.034-.05.045z" class="st21"></path></svg>